<svg id="Bold" xmlns="http://www.w3.org/2000/svg" viewBox="0 0 24 24"><title>card-game-cards-spade-diamond</title><path d="M14.425,16.538l-.608-2.447A.5.5,0,0,1,14,13.568l2.026-1.5a.5.5,0,0,1,.783.281l.608,2.448a.5.5,0,0,1-.188.522l-2.025,1.5A.5.5,0,0,1,14.425,16.538Z"/><path d="M9.666,8.715c-.187-.808-1.788-1.641-2.332-1.9a.249.249,0,0,0-.3.07c-.374.474-1.448,1.925-1.263,2.731a1.438,1.438,0,0,0,1.36,1.073.251.251,0,0,1,.216.193l.205.891a.75.75,0,1,0,1.462-.337L8.8,10.541a.252.252,0,0,1,.11-.267A1.439,1.439,0,0,0,9.666,8.715Z"/><path d="M23.912,10.167a1.486,1.486,0,0,0-.9-1.9L13.839,4.973a1.473,1.473,0,0,0-.434-.086.249.249,0,0,1-.232-.193l-.818-3.543A1.484,1.484,0,0,0,10.576.038L1.15,2.205A1.486,1.486,0,0,0,.038,3.984l3.04,13.2a1.48,1.48,0,0,0,1.78,1.111l2.409-.555a.251.251,0,0,1,.292.328l-.233.649a1.488,1.488,0,0,0,.9,1.9L17.4,23.913h0a1.49,1.49,0,0,0,1.9-.9ZM5.155,16.172a.249.249,0,0,1-.3-.187l-2.7-11.7a.246.246,0,0,1,.032-.189.251.251,0,0,1,.155-.111l7.933-1.827a.249.249,0,0,1,.3.188l1.01,4.381a.251.251,0,0,1-.008.141l-3.017,8.4a.25.25,0,0,1-.179.159Zm12.521,5.45a.252.252,0,0,1-.129.141.244.244,0,0,1-.191.009l-7.74-2.778a.25.25,0,0,1-.15-.32l4.1-11.41a.25.25,0,0,1,.32-.151L21.621,9.89a.25.25,0,0,1,.151.32Z"/><path d="M4.273,4.22a1,1,0,1,0,1,1,1,1,0,0,0-1-1Z"/><path d="M16.5,18.22a1,1,0,1,0,1,1,1,1,0,0,0-1-1Z"/><path d="M14.5,8.22a1,1,0,1,0,1,1,1,1,0,0,0-1-1Z"/></svg>